<mxfile host="Electron" agent="Mozilla/5.0 (Windows NT 10.0; Win64; x64) AppleWebKit/537.36 (KHTML, like Gecko) draw.io/24.7.5 Chrome/126.0.6478.183 Electron/31.3.0 Safari/537.36" version="24.7.5">
  <diagram name="第 1 页" id="QcJDHtvIiekvlkigNKYK">
    <mxGraphModel dx="1290" dy="621" grid="1" gridSize="10" guides="1" tooltips="1" connect="1" arrows="1" fold="1" page="1" pageScale="1" pageWidth="827" pageHeight="1169" math="0" shadow="0">
      <root>
        <mxCell id="0" />
        <mxCell id="1" parent="0" />
        <mxCell id="Z8VQZaNnym_KmtLRX_bw-1" value="" style="rounded=0;whiteSpace=wrap;html=1;" parent="1" vertex="1">
          <mxGeometry x="190" y="140" width="340" height="330" as="geometry" />
        </mxCell>
        <mxCell id="Z8VQZaNnym_KmtLRX_bw-2" value="用户" style="shape=umlActor;verticalLabelPosition=bottom;verticalAlign=top;html=1;outlineConnect=0;" parent="1" vertex="1">
          <mxGeometry x="60" y="300" width="30" height="60" as="geometry" />
        </mxCell>
        <mxCell id="Z8VQZaNnym_KmtLRX_bw-3" value="系统管理员" style="shape=umlActor;verticalLabelPosition=bottom;verticalAlign=top;html=1;outlineConnect=0;" parent="1" vertex="1">
          <mxGeometry x="590" y="300" width="30" height="60" as="geometry" />
        </mxCell>
        <mxCell id="Z8VQZaNnym_KmtLRX_bw-4" value="&lt;font style=&quot;font-size: 14px;&quot;&gt;宠物护理&lt;/font&gt;" style="text;strokeColor=none;fillColor=none;html=1;fontSize=24;fontStyle=1;verticalAlign=middle;align=center;" parent="1" vertex="1">
          <mxGeometry x="310" y="140" width="100" height="40" as="geometry" />
        </mxCell>
        <mxCell id="Z8VQZaNnym_KmtLRX_bw-5" value="浏览护理视频" style="ellipse;whiteSpace=wrap;html=1;" parent="1" vertex="1">
          <mxGeometry x="208.75" y="300" width="90" height="40" as="geometry" />
        </mxCell>
        <mxCell id="Z8VQZaNnym_KmtLRX_bw-11" value="" style="endArrow=none;html=1;rounded=0;exitX=1;exitY=0.3333333333333333;exitDx=0;exitDy=0;exitPerimeter=0;entryX=0;entryY=0.5;entryDx=0;entryDy=0;" parent="1" source="Z8VQZaNnym_KmtLRX_bw-2" target="Z8VQZaNnym_KmtLRX_bw-5" edge="1">
          <mxGeometry width="50" height="50" relative="1" as="geometry">
            <mxPoint x="230" y="420" as="sourcePoint" />
            <mxPoint x="280" y="370" as="targetPoint" />
          </mxGeometry>
        </mxCell>
        <mxCell id="Z8VQZaNnym_KmtLRX_bw-16" value="设置倍速" style="ellipse;whiteSpace=wrap;html=1;" parent="1" vertex="1">
          <mxGeometry x="400" y="260" width="90" height="40" as="geometry" />
        </mxCell>
        <mxCell id="Z8VQZaNnym_KmtLRX_bw-17" value="" style="endArrow=block;dashed=1;endFill=0;endSize=12;html=1;rounded=0;entryX=0;entryY=0.5;entryDx=0;entryDy=0;exitX=1;exitY=0.5;exitDx=0;exitDy=0;" parent="1" source="Z8VQZaNnym_KmtLRX_bw-5" target="Z8VQZaNnym_KmtLRX_bw-16" edge="1">
          <mxGeometry width="160" relative="1" as="geometry">
            <mxPoint x="298.75" y="200" as="sourcePoint" />
            <mxPoint x="688.75" y="268.95" as="targetPoint" />
          </mxGeometry>
        </mxCell>
        <mxCell id="Z8VQZaNnym_KmtLRX_bw-18" value="《include》" style="edgeLabel;html=1;align=center;verticalAlign=middle;resizable=0;points=[];" parent="Z8VQZaNnym_KmtLRX_bw-17" vertex="1" connectable="0">
          <mxGeometry x="-0.0826" relative="1" as="geometry">
            <mxPoint as="offset" />
          </mxGeometry>
        </mxCell>
        <mxCell id="Z8VQZaNnym_KmtLRX_bw-19" value="放大/缩小观看视频" style="ellipse;whiteSpace=wrap;html=1;" parent="1" vertex="1">
          <mxGeometry x="390" y="340" width="120" height="40" as="geometry" />
        </mxCell>
        <mxCell id="Z8VQZaNnym_KmtLRX_bw-20" value="" style="endArrow=block;dashed=1;endFill=0;endSize=12;html=1;rounded=0;entryX=0;entryY=0.5;entryDx=0;entryDy=0;exitX=1;exitY=0.5;exitDx=0;exitDy=0;" parent="1" source="Z8VQZaNnym_KmtLRX_bw-5" target="Z8VQZaNnym_KmtLRX_bw-19" edge="1">
          <mxGeometry width="160" relative="1" as="geometry">
            <mxPoint x="528.75" y="270" as="sourcePoint" />
            <mxPoint x="682.75" y="208.95" as="targetPoint" />
          </mxGeometry>
        </mxCell>
        <mxCell id="Z8VQZaNnym_KmtLRX_bw-21" value="《include》" style="edgeLabel;html=1;align=center;verticalAlign=middle;resizable=0;points=[];" parent="Z8VQZaNnym_KmtLRX_bw-20" vertex="1" connectable="0">
          <mxGeometry x="-0.0826" relative="1" as="geometry">
            <mxPoint as="offset" />
          </mxGeometry>
        </mxCell>
        <mxCell id="Z8VQZaNnym_KmtLRX_bw-26" value="切换浏览页面" style="ellipse;whiteSpace=wrap;html=1;" parent="1" vertex="1">
          <mxGeometry x="400" y="200" width="90" height="40" as="geometry" />
        </mxCell>
        <mxCell id="Z8VQZaNnym_KmtLRX_bw-27" value="" style="endArrow=block;dashed=1;endFill=0;endSize=12;html=1;rounded=0;entryX=0;entryY=0.5;entryDx=0;entryDy=0;exitX=1;exitY=0.5;exitDx=0;exitDy=0;" parent="1" source="Z8VQZaNnym_KmtLRX_bw-5" target="Z8VQZaNnym_KmtLRX_bw-26" edge="1">
          <mxGeometry width="160" relative="1" as="geometry">
            <mxPoint x="299" y="385" as="sourcePoint" />
            <mxPoint x="688.75" y="333.95" as="targetPoint" />
          </mxGeometry>
        </mxCell>
        <mxCell id="Z8VQZaNnym_KmtLRX_bw-28" value="《include》" style="edgeLabel;html=1;align=center;verticalAlign=middle;resizable=0;points=[];" parent="Z8VQZaNnym_KmtLRX_bw-27" vertex="1" connectable="0">
          <mxGeometry x="-0.0826" relative="1" as="geometry">
            <mxPoint as="offset" />
          </mxGeometry>
        </mxCell>
        <mxCell id="Z8VQZaNnym_KmtLRX_bw-29" value="下载视频" style="ellipse;whiteSpace=wrap;html=1;" parent="1" vertex="1">
          <mxGeometry x="405" y="400" width="90" height="40" as="geometry" />
        </mxCell>
        <mxCell id="Z8VQZaNnym_KmtLRX_bw-30" value="" style="endArrow=block;dashed=1;endFill=0;endSize=12;html=1;rounded=0;entryX=0;entryY=0.5;entryDx=0;entryDy=0;exitX=1;exitY=0.5;exitDx=0;exitDy=0;" parent="1" source="Z8VQZaNnym_KmtLRX_bw-5" target="Z8VQZaNnym_KmtLRX_bw-29" edge="1">
          <mxGeometry width="160" relative="1" as="geometry">
            <mxPoint x="309" y="450" as="sourcePoint" />
            <mxPoint x="698.75" y="398.95" as="targetPoint" />
          </mxGeometry>
        </mxCell>
        <mxCell id="Z8VQZaNnym_KmtLRX_bw-31" value="《include》" style="edgeLabel;html=1;align=center;verticalAlign=middle;resizable=0;points=[];" parent="Z8VQZaNnym_KmtLRX_bw-30" vertex="1" connectable="0">
          <mxGeometry x="-0.0826" relative="1" as="geometry">
            <mxPoint as="offset" />
          </mxGeometry>
        </mxCell>
        <mxCell id="Z8VQZaNnym_KmtLRX_bw-33" value="" style="endArrow=none;html=1;rounded=0;entryX=1;entryY=0.5;entryDx=0;entryDy=0;exitX=0;exitY=0.3333333333333333;exitDx=0;exitDy=0;exitPerimeter=0;" parent="1" source="Z8VQZaNnym_KmtLRX_bw-3" target="Z8VQZaNnym_KmtLRX_bw-5" edge="1">
          <mxGeometry width="50" height="50" relative="1" as="geometry">
            <mxPoint x="580" y="320" as="sourcePoint" />
            <mxPoint x="219" y="330" as="targetPoint" />
          </mxGeometry>
        </mxCell>
      </root>
    </mxGraphModel>
  </diagram>
</mxfile>
